# Blender v3.1.2 OBJ File: 'untitled.blend'
# www.blender.org
mtllib Player.mtl
o Cube
v 3.000000 1.000000 -1.000000
v 3.000000 -1.000000 -1.000000
v 3.000000 1.000000 1.000000
v 3.000000 -1.000000 1.000000
v -3.000000 1.000000 -1.000000
v -3.000000 -1.000000 -1.000000
v -3.000000 1.000000 1.000000
v -3.000000 -1.000000 1.000000
v 1.999541 -1.000000 -1.000000
v 0.999541 -1.000000 -1.000000
v 0.000000 -1.000000 -1.000000
v -0.999541 -1.000000 -1.000000
v -1.999541 -1.000000 -1.000000
v 1.999541 1.000000 2.398407
v 0.999541 1.000000 1.000000
v 0.000000 1.000000 5.213931
v -0.999541 1.000000 1.000000
v -1.999541 1.000000 2.398407
v -1.999541 -1.000000 2.398407
v -0.999541 -1.000000 1.000000
v 0.000000 -1.000000 5.213931
v 0.999541 -1.000000 1.000000
v 1.999541 -1.000000 2.398407
v -1.999541 1.000000 -1.000000
v -0.999541 1.000000 -1.000000
v 0.000000 1.000000 -1.000000
v 0.999541 1.000000 -1.000000
v 1.999541 1.000000 -1.000000
vt 0.833314 0.500000
vt 0.875000 0.500000
vt 0.875000 0.750000
vt 0.833314 0.750000
vt 0.375000 0.958314
vt 0.625000 0.958314
vt 0.625000 1.000000
vt 0.375000 1.000000
vt 0.375000 0.000000
vt 0.625000 0.000000
vt 0.625000 0.250000
vt 0.375000 0.250000
vt 0.333314 0.500000
vt 0.375000 0.500000
vt 0.375000 0.750000
vt 0.333314 0.750000
vt 0.625000 0.500000
vt 0.625000 0.750000
vt 0.375000 0.458314
vt 0.625000 0.458314
vt 0.625000 0.291686
vt 0.375000 0.291686
vt 0.625000 0.333352
vt 0.375000 0.333352
vt 0.625000 0.375000
vt 0.375000 0.375000
vt 0.625000 0.416648
vt 0.375000 0.416648
vt 0.125000 0.500000
vt 0.166686 0.500000
vt 0.166686 0.750000
vt 0.125000 0.750000
vt 0.208352 0.500000
vt 0.208352 0.750000
vt 0.250000 0.500000
vt 0.250000 0.750000
vt 0.291648 0.500000
vt 0.291648 0.750000
vt 0.625000 0.791686
vt 0.375000 0.791686
vt 0.625000 0.833353
vt 0.375000 0.833353
vt 0.625000 0.875000
vt 0.375000 0.875000
vt 0.625000 0.916648
vt 0.375000 0.916648
vt 0.666686 0.500000
vt 0.666686 0.750000
vt 0.708352 0.500000
vt 0.708352 0.750000
vt 0.750000 0.500000
vt 0.750000 0.750000
vt 0.791648 0.500000
vt 0.791648 0.750000
vn 0.0000 1.0000 0.0000
vn -0.8133 0.0000 0.5819
vn -1.0000 0.0000 0.0000
vn 0.0000 -1.0000 0.0000
vn 1.0000 0.0000 0.0000
vn 0.0000 0.0000 -1.0000
vn 0.8133 0.0000 0.5819
vn -0.8134 0.0000 0.5817
vn 0.9730 -0.0000 0.2308
vn -0.9730 -0.0000 0.2308
vn 0.8134 0.0000 0.5817
usemtl Material
s off
f 24/1/1 5/2/1 7/3/1 18/4/1
f 19/5/2 18/6/2 7/7/2 8/8/2
f 8/9/3 7/10/3 5/11/3 6/12/3
f 9/13/4 2/14/4 4/15/4 23/16/4
f 2/14/5 1/17/5 3/18/5 4/15/5
f 9/19/6 28/20/6 1/17/6 2/14/6
f 6/12/6 5/11/6 24/21/6 13/22/6
f 13/22/6 24/21/6 25/23/6 12/24/6
f 12/24/6 25/23/6 26/25/6 11/26/6
f 11/26/6 26/25/6 27/27/6 10/28/6
f 10/28/6 27/27/6 28/20/6 9/19/6
f 6/29/4 13/30/4 19/31/4 8/32/4
f 13/30/4 12/33/4 20/34/4 19/31/4
f 12/33/4 11/35/4 21/36/4 20/34/4
f 11/35/4 10/37/4 22/38/4 21/36/4
f 10/37/4 9/13/4 23/16/4 22/38/4
f 4/15/7 3/18/7 14/39/7 23/40/7
f 23/40/8 14/39/8 15/41/8 22/42/8
f 22/42/9 15/41/9 16/43/9 21/44/9
f 21/44/10 16/43/10 17/45/10 20/46/10
f 20/46/11 17/45/11 18/6/11 19/5/11
f 1/17/1 28/47/1 14/48/1 3/18/1
f 28/47/1 27/49/1 15/50/1 14/48/1
f 27/49/1 26/51/1 16/52/1 15/50/1
f 26/51/1 25/53/1 17/54/1 16/52/1
f 25/53/1 24/1/1 18/4/1 17/54/1
